<?xml version="1.0" standalone="no"?>
<!DOCTYPE svg PUBLIC "-//W3C//DTD SVG 20010904//EN"
 "http://www.w3.org/TR/2001/REC-SVG-20010904/DTD/svg10.dtd">
<svg version="1.0" xmlns="http://www.w3.org/2000/svg"
 width="630.000000pt" height="630.000000pt" viewBox="0 0 630.000000 630.000000"
 preserveAspectRatio="xMidYMid meet">
<metadata>
Created by potrace 1.15, written by Peter Selinger 2001-2017
</metadata>
<g transform="translate(0.000000,630.000000) scale(0.100000,-0.100000)"
fill="#000000" stroke="none">
<path d="M2921 5770 c-82 -17 -150 -71 -184 -147 -9 -20 -13 -159 -17 -508
l-5 -480 -170 -6 c-301 -11 -488 -55 -725 -174 -144 -72 -261 -159 -372 -273
-259 -269 -389 -594 -404 -1012 -10 -250 14 -435 81 -637 36 -108 89 -220 138
-293 235 -349 609 -550 1137 -612 162 -18 602 -15 800 6 332 36 615 84 657
111 33 22 29 3 -13 -67 -70 -114 -180 -202 -399 -318 -137 -73 -150 -83 -179
-142 -19 -38 -26 -68 -26 -110 0 -117 49 -180 195 -248 55 -26 235 -111 401
-189 379 -178 366 -177 577 -64 173 93 265 160 388 282 244 243 370 517 424
921 29 215 36 549 33 1555 l-3 1000 -22 40 c-28 52 -68 89 -120 113 l-43 19
31 29 c17 16 41 47 52 69 21 39 22 52 25 470 2 290 0 447 -8 481 -15 72 -59
127 -128 161 l-57 28 -435 0 -435 0 -57 -28 c-32 -16 -67 -42 -79 -58 l-22
-31 -36 36 c-20 19 -58 45 -86 58 -49 23 -55 23 -460 25 -225 1 -430 -3 -454
-7z m819 -2025 l0 -1785 -22 -5 c-170 -39 -531 -82 -787 -95 -191 -10 -250 -9
-451 6 -354 27 -666 149 -872 342 -149 139 -262 369 -304 617 -23 137 -23 397
0 530 81 467 368 811 796 954 182 61 273 75 510 75 160 0 232 -3 283 -15 37
-9 69 -13 72 -11 3 3 5 268 5 589 l0 583 385 0 385 0 0 -1785z m1200 1396 c0
-250 -4 -391 -10 -393 -5 -1 -181 -2 -390 0 l-380 2 0 390 0 390 390 0 390 0
0 -389z m77 -1928 c-3 -654 -10 -1136 -16 -1208 -35 -383 -113 -620 -278 -839
-97 -130 -238 -243 -444 -355 l-77 -42 -268 127 c-148 70 -309 146 -359 169
l-90 42 102 52 c381 191 555 422 617 821 30 193 36 407 36 1361 l0 959 391 0
391 0 -5 -1087z"/>
<path d="M2536 3734 c-225 -54 -379 -228 -422 -475 -19 -112 -14 -301 11 -394
58 -214 203 -357 410 -400 73 -15 270 -20 388 -8 l67 6 0 628 0 627 -69 16
c-88 20 -302 20 -385 0z"/>
</g>
</svg>
