<?xml version="1.0" standalone="no"?>
<!DOCTYPE svg PUBLIC "-//W3C//DTD SVG 20010904//EN"
 "http://www.w3.org/TR/2001/REC-SVG-20010904/DTD/svg10.dtd">
<svg version="1.0" xmlns="http://www.w3.org/2000/svg"
 width="920.000000pt" height="635.000000pt" viewBox="0 0 920.000000 635.000000"
 preserveAspectRatio="xMidYMid meet">
<metadata>
Created by potrace 1.15, written by Peter Selinger 2001-2017
</metadata>
<g transform="translate(0.000000,635.000000) scale(0.100000,-0.100000)"
fill="#000000" stroke="none">
<path d="M4874 5600 c-106 -22 -194 -94 -241 -195 -23 -51 -28 -73 -27 -145 0
-72 4 -94 28 -147 31 -69 89 -129 155 -162 23 -12 41 -27 41 -34 0 -6 -11 -55
-25 -107 -14 -52 -30 -112 -36 -132 l-9 -37 -70 6 c-116 10 -238 -24 -331 -92
l-47 -35 -145 131 -146 132 17 31 c11 21 17 55 17 106 0 61 -4 83 -24 118 -14
23 -27 42 -30 42 -3 0 -24 -15 -46 -34 -28 -24 -39 -41 -40 -62 0 -25 -4 -29
-28 -29 -23 1 -27 -3 -27 -28 0 -16 9 -40 20 -54 29 -37 26 -79 -9 -114 -36
-35 -77 -38 -115 -8 -15 12 -28 20 -30 18 -37 -56 -39 -62 -20 -76 11 -8 29
-12 41 -10 12 2 20 0 17 -4 -3 -5 2 -9 10 -9 14 0 16 -18 16 -116 0 -100 -3
-119 -20 -141 -13 -17 -18 -34 -14 -49 5 -19 -9 -41 -71 -114 -42 -49 -83 -90
-91 -90 -17 0 -64 -44 -64 -59 0 -5 11 -22 24 -38 16 -19 27 -51 35 -100 18
-118 19 -117 -46 -149 -49 -24 -58 -33 -56 -54 3 -49 12 -116 23 -170 23 -118
-22 -238 -94 -252 -11 -1 -21 -8 -23 -14 -7 -20 76 -101 139 -134 58 -32 70
-34 153 -35 77 0 98 4 146 26 104 49 172 132 200 244 6 28 13 51 14 53 6 7
541 -131 544 -141 2 -7 19 -25 37 -42 21 -20 47 -66 78 -142 25 -62 46 -117
46 -122 0 -5 -8 -12 -18 -15 -37 -12 -112 -99 -133 -155 -45 -121 1 -268 106
-337 22 -15 28 -13 119 32 52 27 94 49 93 50 -1 1 -29 4 -62 7 -63 5 -114 23
-153 54 -23 19 -23 20 -5 42 l18 22 49 -27 c68 -38 144 -38 212 0 43 24 50 25
60 12 14 -20 38 -20 55 0 7 8 25 22 41 30 24 12 27 19 24 52 -2 20 -12 57 -22
81 l-18 45 178 172 177 173 52 -25 c29 -13 57 -24 64 -24 13 0 71 82 119 167
l28 52 -20 23 c-12 13 -24 30 -27 38 -3 8 -6 -7 -6 -34 -1 -56 -38 -116 -71
-116 -10 0 -30 15 -44 33 -24 32 -26 41 -26 149 0 102 2 117 20 133 28 25 25
43 -7 47 -17 2 -28 9 -28 18 0 12 16 15 85 15 69 0 85 -3 85 -15 0 -9 -11 -16
-27 -18 -33 -4 -36 -22 -8 -47 14 -12 20 -31 21 -59 0 -35 2 -37 9 -19 13 33
69 64 109 61 33 -3 34 -2 62 72 16 41 32 83 35 92 6 21 -62 63 -139 85 l-54
15 -7 185 c-3 101 -4 188 -1 192 2 5 17 11 32 14 16 3 47 19 70 36 122 89 136
272 29 376 -58 56 -92 70 -176 70 -64 0 -82 -4 -123 -28 -87 -52 -134 -143
-124 -244 l5 -51 -146 -47 c-81 -26 -151 -48 -156 -48 -5 -1 -18 16 -30 38
-36 68 -136 160 -215 197 -39 18 -70 37 -68 43 2 5 19 66 37 135 18 69 34 126
36 128 1 2 40 5 86 6 68 2 95 8 148 33 224 104 267 402 83 575 -68 64 -208
100 -309 78z m227 -160 c104 -85 106 -275 6 -355 -18 -14 -39 -32 -48 -40 -14
-14 -18 -13 -34 5 -17 19 -17 21 0 40 10 11 22 17 27 14 14 -9 49 27 69 71 36
78 19 169 -43 228 -24 23 -38 44 -34 52 8 21 17 19 57 -15z m-80 -60 c3 -25 7
-41 7 -36 3 17 52 -37 52 -57 0 -19 -49 -86 -52 -70 -1 4 -4 -21 -7 -57 l-6
-65 -85 -3 c-125 -4 -130 -2 -130 59 0 44 -4 55 -30 79 -17 16 -30 38 -30 52
0 29 45 77 53 56 3 -7 6 5 6 28 1 60 12 65 121 62 l95 -3 6 -45z m-870 -756
l139 -126 -35 -48 c-45 -61 -76 -134 -78 -186 -1 -23 -6 -40 -11 -37 -9 6 -3
-128 9 -187 13 -68 69 -164 131 -226 71 -71 154 -115 257 -135 l67 -13 0 -138
c0 -115 -3 -140 -15 -144 -9 -4 -140 25 -293 63 l-277 69 -13 58 c-33 152
-164 262 -324 274 -77 5 -70 -5 -88 120 -9 67 -9 75 9 98 14 17 18 35 15 53
-5 22 6 41 66 111 47 57 81 88 100 93 17 4 37 19 46 33 16 24 16 27 -5 54 -19
26 -21 42 -21 143 l0 115 43 11 c23 6 60 24 82 40 22 16 44 30 48 30 5 1 71
-56 148 -125z m1526 64 c29 -27 29 -62 1 -82 -16 -11 -18 -16 -8 -18 8 0 20
-2 25 -3 11 -3 20 -4 33 -6 21 -2 32 -26 32 -73 0 -69 -24 -96 -85 -96 -37 0
-47 5 -71 33 -15 17 -31 31 -36 29 -5 -1 -7 2 -3 7 3 6 -2 22 -11 36 -13 20
-14 28 -4 40 15 18 37 19 43 3 3 -7 6 -3 6 10 1 12 -8 31 -19 42 -26 26 -25
46 5 75 30 31 62 32 92 3z m-1189 -210 c7 -7 12 -20 12 -30 0 -13 8 -18 30
-18 23 0 30 5 30 19 0 28 26 47 45 31 8 -7 15 -21 15 -31 0 -14 7 -19 30 -19
23 0 30 5 30 19 0 28 26 47 45 31 8 -7 15 -21 15 -31 0 -14 7 -19 30 -19 23 0
30 5 30 19 0 28 26 47 45 31 8 -7 15 -21 15 -31 0 -12 7 -19 18 -19 23 0 42
-19 42 -42 0 -11 7 -18 19 -18 28 0 47 -26 31 -45 -7 -8 -21 -15 -31 -15 -14
0 -19 -7 -19 -30 0 -23 5 -30 19 -30 28 0 47 -26 31 -45 -7 -8 -21 -15 -31
-15 -14 0 -19 -7 -19 -29 0 -24 5 -30 30 -34 44 -9 34 -57 -12 -57 -13 0 -18
-8 -18 -30 0 -23 5 -30 19 -30 10 0 24 -7 31 -15 16 -19 -3 -45 -31 -45 -12 0
-19 -7 -19 -18 0 -10 -5 -23 -12 -30 -7 -7 -20 -12 -30 -12 -11 0 -18 -7 -18
-19 0 -10 -7 -24 -15 -31 -19 -16 -45 3 -45 31 0 14 -7 19 -30 19 -23 0 -30
-5 -30 -19 0 -10 -7 -24 -15 -31 -19 -16 -45 3 -45 31 0 14 -7 19 -30 19 -23
0 -30 -5 -30 -19 0 -28 -26 -47 -45 -31 -8 7 -15 21 -15 31 0 14 -7 19 -30 19
-23 0 -30 -5 -30 -19 0 -28 -26 -47 -45 -31 -8 7 -15 21 -15 31 0 12 -7 19
-18 19 -23 0 -42 19 -42 42 0 11 -7 18 -18 18 -46 0 -56 48 -12 57 25 4 30 10
30 33 0 23 -5 29 -30 34 -44 8 -34 56 12 56 13 0 18 8 18 30 0 22 -5 30 -18
30 -46 0 -56 48 -12 57 25 4 30 10 30 34 0 22 -5 29 -19 29 -28 0 -47 26 -31
45 7 8 21 15 31 15 12 0 19 7 19 18 0 10 5 23 12 30 7 7 20 12 30 12 11 0 18
7 18 18 0 17 18 42 30 42 3 0 11 -5 18 -12z m948 -63 c4 -8 11 -12 17 -8 6 3
7 1 3 -5 -17 -27 82 -98 155 -110 l44 -8 8 -144 c4 -80 6 -163 5 -184 -3 -39
-3 -40 -60 -53 -32 -7 -77 -22 -100 -34 -199 -99 -247 -373 -96 -545 l33 -37
-175 -168 -174 -168 -31 25 c-62 51 -114 69 -202 69 l-81 0 -48 119 c-42 107
-46 122 -36 150 10 27 9 35 -8 58 -18 24 -20 43 -20 161 l0 133 68 13 c278 54
453 321 387 594 -11 50 -11 59 0 64 39 15 282 91 293 92 7 1 15 -6 18 -14z
m-1699 -747 c21 -19 23 -31 23 -107 0 -73 -3 -88 -22 -108 -27 -29 -65 -29
-95 -1 -21 19 -23 31 -23 107 0 73 3 88 22 108 27 29 65 29 95 1z m-149 -167
c8 -4 13 -10 11 -12 -1 -2 1 -14 5 -27 8 -24 53 -52 86 -52 48 0 92 40 95 85
0 6 11 10 25 10 56 0 19 -91 -52 -130 -28 -15 -38 -27 -40 -50 -2 -25 -8 -30
-28 -30 -21 0 -26 5 -28 32 -2 24 -10 34 -33 43 -51 22 -103 100 -84 129 7 13
25 14 43 2z m1370 -604 c5 -38 -45 -87 -88 -87 -54 0 -114 82 -83 114 4 4 43
5 88 4 79 -3 80 -3 83 -31z"/>
<path d="M4840 5312 c0 -71 2 -78 20 -79 11 -1 20 3 20 9 0 6 6 6 15 -2 17
-14 20 -46 6 -54 -5 -4 -21 -2 -35 4 -24 9 -26 8 -26 -20 l0 -30 70 0 70 0 0
29 c0 26 -3 30 -26 28 -39 -3 -42 21 -5 34 31 11 31 11 31 85 l0 74 -70 0 -70
0 0 -78z"/>
<path d="M4440 4160 l0 -210 210 0 210 0 0 210 0 210 -210 0 -210 0 0 -210z
m348 138 c15 -15 16 -211 2 -238 -8 -15 -7 -18 3 -14 17 6 47 -21 47 -41 0
-18 -34 -37 -54 -29 -17 7 -29 32 -20 46 4 6 -2 6 -14 -1 -29 -15 -225 -14
-240 1 -17 17 -17 259 0 276 8 8 53 12 138 12 85 0 130 -4 138 -12z"/>
<path d="M4560 4160 l0 -90 78 0 c47 0 83 5 90 12 7 7 12 43 12 90 l0 78 -90
0 -90 0 0 -90z"/>
</g>
</svg>
