<?xml version="1.0" standalone="no"?>
<!DOCTYPE svg PUBLIC "-//W3C//DTD SVG 20010904//EN"
 "http://www.w3.org/TR/2001/REC-SVG-20010904/DTD/svg10.dtd">
<svg version="1.0" xmlns="http://www.w3.org/2000/svg"
 width="630.000000pt" height="630.000000pt" viewBox="0 0 630.000000 630.000000"
 preserveAspectRatio="xMidYMid meet">
<metadata>
Created by potrace 1.15, written by Peter Selinger 2001-2017
</metadata>
<g transform="translate(0.000000,630.000000) scale(0.100000,-0.100000)"
fill="#000000" stroke="none">
<path d="M2980 5777 c-3 -2 -50 -7 -105 -11 -530 -34 -910 -217 -1044 -501
-50 -105 -53 -137 -52 -442 2 -263 1 -282 -16 -287 -10 -3 -94 -5 -188 -4
-148 2 -181 -1 -255 -21 -322 -86 -553 -320 -673 -682 -25 -76 -61 -234 -72
-319 -3 -25 -8 -61 -11 -80 -3 -19 -8 -112 -11 -206 -5 -156 -2 -217 23 -449
19 -170 84 -398 155 -538 56 -114 114 -191 217 -289 71 -67 110 -95 184 -131
150 -74 215 -86 476 -86 l173 -1 -1 -222 c-1 -124 3 -244 9 -270 31 -139 95
-253 201 -359 182 -183 422 -279 835 -334 145 -20 401 -25 570 -13 334 25 532
71 734 169 114 56 132 69 221 157 78 78 104 112 133 172 55 116 59 145 57 452
l-1 278 123 1 c247 1 354 21 503 92 178 86 326 235 425 428 63 122 102 239
135 406 26 132 26 134 22 510 -4 367 -5 381 -31 493 -72 308 -167 492 -339
657 -103 98 -200 156 -322 192 -96 28 -124 30 -332 31 l-183 0 0 223 c0 190
-3 235 -20 301 -92 362 -466 604 -1020 661 -36 4 -78 9 -95 11 -47 7 -419 17
-425 11z m1975 -1462 c192 -49 349 -198 442 -418 19 -45 49 -136 66 -202 l32
-120 0 -415 0 -415 -29 -105 c-58 -211 -134 -349 -251 -458 -74 -69 -129 -104
-224 -141 l-66 -26 -885 -5 -885 -5 -3 -82 -3 -83 576 0 576 0 -3 -322 -3
-323 -34 -63 c-135 -250 -538 -374 -1161 -359 -481 12 -767 100 -951 294 -62
65 -88 110 -113 192 -14 48 -16 133 -16 670 0 687 1 698 66 831 67 136 197
238 374 291 74 23 85 23 780 29 621 5 712 8 763 23 225 66 368 223 427 471 18
72 20 119 20 419 l0 337 223 0 c167 0 238 -4 282 -15z"/>
<path d="M3725 1536 c-95 -42 -147 -159 -114 -257 35 -104 146 -167 248 -139
49 13 112 66 135 114 33 70 17 175 -38 234 -51 57 -160 80 -231 48z"/>
</g>
</svg>
